<mxfile host="app.diagrams.net" modified="2023-08-24T16:26:39.321Z" agent="Mozilla/5.0 (X11; Ubuntu; Linux x86_64; rv:109.0) Gecko/20100101 Firefox/116.0" etag="gZOXZJBaVNyC3Hf2UCoP" version="21.6.9" type="github">
  <diagram name="Page-1" id="ozs8nC8wPT5GNGR2aboZ">
    <mxGraphModel dx="989" dy="567" grid="1" gridSize="10" guides="1" tooltips="1" connect="1" arrows="1" fold="1" page="1" pageScale="1" pageWidth="850" pageHeight="1100" math="0" shadow="0">
      <root>
        <mxCell id="0" />
        <mxCell id="1" parent="0" />
        <mxCell id="8-qyJnc8d29dQaqDmb6w-1" value="15.4 " style="rounded=0;whiteSpace=wrap;html=1;" vertex="1" parent="1">
          <mxGeometry x="360" y="340" width="120" height="60" as="geometry" />
        </mxCell>
        <mxCell id="8-qyJnc8d29dQaqDmb6w-2" value="TCP" style="rounded=0;whiteSpace=wrap;html=1;" vertex="1" parent="1">
          <mxGeometry x="450" y="180" width="120" height="60" as="geometry" />
        </mxCell>
        <mxCell id="8-qyJnc8d29dQaqDmb6w-18" style="edgeStyle=orthogonalEdgeStyle;rounded=0;orthogonalLoop=1;jettySize=auto;html=1;exitX=0.75;exitY=1;exitDx=0;exitDy=0;entryX=0.317;entryY=-0.033;entryDx=0;entryDy=0;entryPerimeter=0;" edge="1" parent="1" source="8-qyJnc8d29dQaqDmb6w-3" target="8-qyJnc8d29dQaqDmb6w-4">
          <mxGeometry relative="1" as="geometry" />
        </mxCell>
        <mxCell id="8-qyJnc8d29dQaqDmb6w-3" value="UDP" style="rounded=0;whiteSpace=wrap;html=1;" vertex="1" parent="1">
          <mxGeometry x="310" y="180" width="120" height="60" as="geometry" />
        </mxCell>
        <mxCell id="8-qyJnc8d29dQaqDmb6w-19" style="edgeStyle=orthogonalEdgeStyle;rounded=0;orthogonalLoop=1;jettySize=auto;html=1;exitX=0.5;exitY=1;exitDx=0;exitDy=0;entryX=0.5;entryY=0;entryDx=0;entryDy=0;" edge="1" parent="1" source="8-qyJnc8d29dQaqDmb6w-4" target="8-qyJnc8d29dQaqDmb6w-1">
          <mxGeometry relative="1" as="geometry" />
        </mxCell>
        <mxCell id="8-qyJnc8d29dQaqDmb6w-4" value="IP/6LoWPAN" style="rounded=0;whiteSpace=wrap;html=1;" vertex="1" parent="1">
          <mxGeometry x="360" y="260" width="120" height="60" as="geometry" />
        </mxCell>
        <mxCell id="8-qyJnc8d29dQaqDmb6w-6" value="" style="endArrow=none;dashed=1;html=1;dashPattern=1 3;strokeWidth=2;rounded=0;" edge="1" parent="1">
          <mxGeometry width="50" height="50" relative="1" as="geometry">
            <mxPoint x="220" y="160" as="sourcePoint" />
            <mxPoint x="640" y="160" as="targetPoint" />
          </mxGeometry>
        </mxCell>
        <mxCell id="8-qyJnc8d29dQaqDmb6w-9" style="edgeStyle=orthogonalEdgeStyle;rounded=0;orthogonalLoop=1;jettySize=auto;html=1;exitX=1;exitY=0.5;exitDx=0;exitDy=0;" edge="1" parent="1" source="8-qyJnc8d29dQaqDmb6w-7">
          <mxGeometry relative="1" as="geometry">
            <mxPoint x="280" y="210" as="targetPoint" />
          </mxGeometry>
        </mxCell>
        <mxCell id="8-qyJnc8d29dQaqDmb6w-10" style="edgeStyle=orthogonalEdgeStyle;rounded=0;orthogonalLoop=1;jettySize=auto;html=1;exitX=1;exitY=0.75;exitDx=0;exitDy=0;entryX=0;entryY=0.5;entryDx=0;entryDy=0;" edge="1" parent="1" source="8-qyJnc8d29dQaqDmb6w-7" target="8-qyJnc8d29dQaqDmb6w-4">
          <mxGeometry relative="1" as="geometry" />
        </mxCell>
        <mxCell id="8-qyJnc8d29dQaqDmb6w-11" style="edgeStyle=orthogonalEdgeStyle;rounded=0;orthogonalLoop=1;jettySize=auto;html=1;exitX=1;exitY=1;exitDx=0;exitDy=0;entryX=0;entryY=0.5;entryDx=0;entryDy=0;" edge="1" parent="1" source="8-qyJnc8d29dQaqDmb6w-7" target="8-qyJnc8d29dQaqDmb6w-1">
          <mxGeometry relative="1" as="geometry" />
        </mxCell>
        <mxCell id="8-qyJnc8d29dQaqDmb6w-7" value="Thread" style="whiteSpace=wrap;html=1;aspect=fixed;" vertex="1" parent="1">
          <mxGeometry x="120" y="190" width="80" height="80" as="geometry" />
        </mxCell>
        <mxCell id="8-qyJnc8d29dQaqDmb6w-16" style="edgeStyle=orthogonalEdgeStyle;rounded=0;orthogonalLoop=1;jettySize=auto;html=1;exitX=0.5;exitY=1;exitDx=0;exitDy=0;" edge="1" parent="1" source="8-qyJnc8d29dQaqDmb6w-12" target="8-qyJnc8d29dQaqDmb6w-7">
          <mxGeometry relative="1" as="geometry" />
        </mxCell>
        <mxCell id="8-qyJnc8d29dQaqDmb6w-12" value="control" style="whiteSpace=wrap;html=1;aspect=fixed;" vertex="1" parent="1">
          <mxGeometry x="130" y="60" width="60" height="60" as="geometry" />
        </mxCell>
        <mxCell id="8-qyJnc8d29dQaqDmb6w-14" style="edgeStyle=orthogonalEdgeStyle;rounded=0;orthogonalLoop=1;jettySize=auto;html=1;exitX=0.5;exitY=1;exitDx=0;exitDy=0;" edge="1" parent="1" source="8-qyJnc8d29dQaqDmb6w-13" target="8-qyJnc8d29dQaqDmb6w-3">
          <mxGeometry relative="1" as="geometry" />
        </mxCell>
        <mxCell id="8-qyJnc8d29dQaqDmb6w-15" style="edgeStyle=orthogonalEdgeStyle;rounded=0;orthogonalLoop=1;jettySize=auto;html=1;exitX=0.75;exitY=1;exitDx=0;exitDy=0;entryX=0.45;entryY=0;entryDx=0;entryDy=0;entryPerimeter=0;" edge="1" parent="1" source="8-qyJnc8d29dQaqDmb6w-13" target="8-qyJnc8d29dQaqDmb6w-2">
          <mxGeometry relative="1" as="geometry" />
        </mxCell>
        <mxCell id="8-qyJnc8d29dQaqDmb6w-13" value="data" style="whiteSpace=wrap;html=1;aspect=fixed;" vertex="1" parent="1">
          <mxGeometry x="390" y="60" width="70" height="70" as="geometry" />
        </mxCell>
        <mxCell id="8-qyJnc8d29dQaqDmb6w-20" style="edgeStyle=orthogonalEdgeStyle;rounded=0;orthogonalLoop=1;jettySize=auto;html=1;exitX=0.5;exitY=1;exitDx=0;exitDy=0;" edge="1" parent="1" source="8-qyJnc8d29dQaqDmb6w-2" target="8-qyJnc8d29dQaqDmb6w-2">
          <mxGeometry relative="1" as="geometry" />
        </mxCell>
      </root>
    </mxGraphModel>
  </diagram>
</mxfile>
